<svg width="228" height="241" viewBox="0 0 228 241" fill="none" xmlns="http://www.w3.org/2000/svg">
<g clip-path="url(#clip0)">
<path d="M51.8581 99.3475C51.886 99.8584 52.0946 100.557 52.9293 100.979L80.945 115.138L79.0494 80.4788L52.7455 97.6087C51.9612 98.119 51.8301 98.8357 51.8581 99.3475Z" fill="#1E1E1E"/>
<path d="M192.031 33.2402C179.746 22.2288 163.979 16.657 147.635 17.5509L147.324 17.5679C131.86 18.4137 117.606 25.2809 107.188 36.9051C96.7694 48.5294 91.4973 63.4476 92.343 78.9116L95.5631 137.788C96.9771 163.641 108.454 187.468 127.881 204.879C137.582 213.574 148.657 220.123 160.533 224.326C160.413 224.219 160.29 224.116 160.169 224.008C145.794 211.124 137.301 193.481 136.253 174.33L134.695 145.836C133.241 119.25 153.687 96.4376 180.273 94.9836L180.507 94.9708C192.499 94.315 203.923 96.9404 213.911 102.058L212.467 75.6602C211.574 59.3163 204.316 44.2512 192.031 33.2402ZM152.051 72.8274C148.367 73.0289 145.217 70.206 145.016 66.5225C144.779 62.1903 141.047 58.8596 136.696 59.0976C132.345 59.3355 128.999 63.0534 129.235 67.3856C129.437 71.069 126.614 74.2186 122.931 74.4201C119.247 74.6215 116.097 71.7986 115.896 68.1151C115.257 56.4276 124.26 46.3984 135.966 45.7581C147.673 45.1179 157.716 54.1054 158.355 65.7929C158.557 69.4764 155.734 72.626 152.051 72.8274Z" fill="#1E1E1E"/>
<path d="M218.93 121.632C208.499 112.282 195.113 107.552 181.237 108.311L181.003 108.323C161.773 109.375 146.983 125.876 148.035 145.106L149.593 173.601C150.446 189.189 157.369 203.558 169.086 214.06C180.803 224.562 195.842 229.876 211.43 229.024L233.852 227.797C237.297 227.609 239.947 224.653 239.758 221.208L236.282 157.646C235.523 143.771 229.361 130.981 218.93 121.632Z" fill="#1E1E1E"/>
</g>
<defs>
<clipPath id="clip0">
<rect width="228" height="228" fill="white" transform="translate(0 12.4512) rotate(-3.13051)"/>
</clipPath>
</defs>
</svg>
