<svg width="298" height="298" viewBox="0 0 298 298" fill="none" xmlns="http://www.w3.org/2000/svg">
<g clip-path="url(#clip0)">
<path d="M257.537 85.9569L146.424 15.6174C143.352 13.5001 139.612 12.5285 135.895 12.8808C132.178 13.2331 128.679 14.8909 126.045 17.5492L30.1428 107.512C23.8411 113.847 24.0215 123.977 30.2319 130.137C36.4808 136.343 46.6615 136.266 52.8409 130.042L139.413 50.0737L239.468 112.351C246.754 117.327 256.702 115.496 261.699 108.18C266.679 100.924 264.86 90.9684 257.537 85.9569Z" fill="#1E1E1E"/>
<path d="M235.183 212.888L228.067 213.563L228.648 124.44L141.311 70.0958L65.744 139.897L83.0561 227.308L75.9404 227.982C71.5393 228.4 68.3156 232.299 68.7328 236.7C69.15 241.101 73.0488 244.324 77.4499 243.907L236.692 228.813C241.093 228.395 244.317 224.496 243.9 220.095C243.482 215.694 239.584 212.471 235.183 212.888ZM154.052 204.511C149.654 204.928 145.752 201.701 145.335 197.303C144.918 192.905 148.145 189.003 152.542 188.586C156.94 188.169 160.842 191.395 161.259 195.794C161.676 200.191 158.449 204.094 154.052 204.511ZM151.033 172.663C129.082 174.743 109.529 158.576 107.448 136.626C105.368 114.675 121.535 95.1219 143.486 93.0412C165.436 90.9605 184.989 107.128 187.07 129.078C189.151 151.029 172.983 170.582 151.033 172.663Z" fill="#1E1E1E"/>
<path d="M132.704 233.556L136.519 273.803C137.206 281.05 141.328 286.589 145.726 286.173L177.574 283.154C181.972 282.737 184.98 276.523 184.292 269.274L180.477 229.027L132.704 233.555L132.704 233.556Z" fill="#1E1E1E" stroke="white" stroke-width="8"/>
<path d="M144.995 108.966C131.824 110.214 122.124 121.945 123.373 135.117C124.621 148.288 136.352 157.988 149.523 156.739C162.695 155.49 172.394 143.76 171.146 130.588C169.897 117.416 158.167 107.717 144.995 108.966Z" fill="#1E1E1E"/>
</g>
<defs>
<clipPath id="clip0">
<rect width="273" height="273" fill="white" transform="translate(0 25.7624) rotate(-5.41492)"/>
</clipPath>
</defs>
</svg>
