<svg width="532" height="532" viewBox="0 0 532 532" fill="none" xmlns="http://www.w3.org/2000/svg">
<g clip-path="url(#clip0)">
<path d="M329.836 365.208L316.675 385.278L256.466 345.795L282.788 305.656L262.718 292.495L236.396 332.634L166.153 286.571L179.314 266.501L89.0006 207.277L75.8396 227.346L146.083 273.41L132.922 293.479L323.584 418.508L336.744 398.439L376.884 424.761L390.045 404.691L329.836 365.208Z" fill="#1E1E1E"/>
<path d="M374.587 121.903L335.104 182.112L355.173 195.273L368.334 175.203L418.508 208.106L411.6 174.875L444.83 167.966L374.587 121.903Z" fill="#1E1E1E"/>
<path d="M328.687 213.779C309.32 201.079 283.234 206.502 270.534 225.869C268.721 228.634 269.496 232.364 272.261 234.177C275.031 235.993 275.804 239.715 273.988 242.485L267.408 252.52C265.595 255.284 266.37 259.014 269.135 260.827L274.152 264.117L280.733 254.083L290.767 260.663L284.187 270.698L294.222 277.278L300.802 267.244L310.837 273.824L304.257 283.859L309.274 287.149C312.039 288.962 315.769 288.187 317.582 285.422L324.162 275.387C325.978 272.618 329.7 271.844 332.47 273.66C335.234 275.473 338.964 274.697 340.777 271.933C353.478 252.566 348.054 226.48 328.687 213.779ZM291.385 232.368C287.236 229.647 286.073 224.056 288.794 219.906C291.515 215.757 297.106 214.595 301.256 217.316C305.405 220.037 306.567 225.628 303.846 229.777C301.125 233.927 295.534 235.089 291.385 232.368ZM307.383 257.209L297.348 250.628L303.928 240.593L313.963 247.174L307.383 257.209ZM326.507 255.4C322.357 252.679 321.195 247.087 323.916 242.938C326.637 238.789 332.228 237.626 336.377 240.347C340.527 243.068 341.689 248.659 338.968 252.809C336.247 256.958 330.656 258.121 326.507 255.4Z" fill="#1E1E1E"/>
<path d="M410.816 242.266L410.015 238.411L258.258 138.894C260.958 160.697 255.903 182.531 243.72 201.111C231.536 219.69 213.526 233.028 192.454 239.242L344.21 338.759L348.065 337.958C369.227 333.553 387.408 321.181 399.259 303.108C411.111 285.035 415.212 263.43 410.816 242.266ZM331.469 286.127L327.616 292.002C322.174 300.301 310.992 302.626 302.694 297.184L262.554 270.862C254.256 265.42 251.931 254.238 257.373 245.939L261.226 240.064C256.744 234.162 256.209 225.832 260.499 219.289C276.825 194.393 310.371 187.418 335.268 203.745C360.164 220.071 367.138 253.617 350.812 278.513C346.522 285.056 338.668 287.885 331.469 286.127Z" fill="#1E1E1E"/>
<path d="M278.527 469.167L278.529 469.167C286.63 467.479 294.887 469.049 301.813 473.59C303.706 474.832 305.44 476.29 307.02 477.905L308.862 479.789L311.32 478.84C322.859 474.384 332.826 466.416 339.654 456.003L361.886 422.101L364.08 418.756L360.735 416.562L340.665 403.401L337.32 401.208L335.127 404.553L325.256 419.605C324.651 420.527 323.409 420.786 322.487 420.181L131.826 295.152C130.903 294.547 130.645 293.305 131.25 292.382L141.121 277.33L143.314 273.985L139.969 271.792L89.7951 238.889L86.4502 236.696L84.2567 240.041L62.0245 273.943C55.2246 284.313 51.878 296.693 52.3834 309.036L52.4913 311.67L54.9547 312.61C57.0674 313.415 59.0856 314.418 60.9774 315.659C67.9032 320.2 72.6339 327.148 74.3146 335.25L74.3149 335.252L76.3392 344.988C79.2863 359.164 94.0581 368.851 108.234 365.904L117.97 363.88L117.972 363.879C126.073 362.191 134.33 363.761 141.256 368.303C148.182 372.844 152.912 379.791 154.593 387.894L154.593 387.896L156.618 397.632C159.565 411.808 174.336 421.495 188.512 418.548L198.249 416.523L198.251 416.523C206.351 414.835 214.608 416.405 221.534 420.946C228.46 425.488 233.191 432.435 234.871 440.538L234.872 440.54L236.896 450.276C239.843 464.452 254.615 474.139 268.791 471.192L278.527 469.167Z" fill="#1E1E1E" stroke="white" stroke-width="8"/>
</g>
<defs>
<clipPath id="clip0">
<rect width="384" height="384" fill="white" transform="translate(210.575) rotate(33.2555)"/>
</clipPath>
</defs>
</svg>
