<?xml version="1.0" standalone="no"?><svg xmlns="http://www.w3.org/2000/svg" viewBox="0 0 1440 320"><path fill="#3182ce" fill-opacity="1" d="M0,224L40,213.3C80,203,160,181,240,170.7C320,160,400,160,480,154.7C560,149,640,139,720,112C800,85,880,43,960,58.7C1040,75,1120,149,1200,170.7C1280,192,1360,160,1400,144L1440,128L1440,320L1400,320C1360,320,1280,320,1200,320C1120,320,1040,320,960,320C880,320,800,320,720,320C640,320,560,320,480,320C400,320,320,320,240,320C160,320,80,320,40,320L0,320Z"></path></svg>